<svg xmlns="http://www.w3.org/2000/svg"><symbol id="tooling" viewBox="0 0 40 40"><path d="m14 9-10 11 10 11m12-22 10 11-10 11M23 6l-6 28"/></symbol><symbol id="research" viewBox="0 0 40 40"><circle cx="20" cy="20" r="4"/><ellipse cx="20" cy="20" rx="17" ry="8" transform="rotate(45 20 20)"/><ellipse cx="20" cy="20" rx="17" ry="8" transform="rotate(-45 20 20)"/></symbol><symbol id="competition" viewBox="0 0 40 40"><path d="M6 8h28v24H6zM6 16h28M6 24h28M15 8v24M25 8v24"/><circle cx="20" cy="20" r="2"/></symbol><symbol id="dataset" viewBox="0 0 40 40"><ellipse cx="20" cy="8" rx="14" ry="5"/><path d="M6 8v24c0 7 28 7 28 0V8M6 20c0 7 28 7 28 0"/></symbol></svg>
