<svg xmlns="http://www.w3.org/2000/svg" width="1200" height="1800" viewBox="0 0 1200 1800">
<defs>
<pattern id="grain" width="90" height="90" patternUnits="userSpaceOnUse"><circle cx="16" cy="21" r="0.8" fill="#eadfcd"/><circle cx="70" cy="52" r="0.65" fill="#efe4d2"/></pattern>
</defs>
<rect width="100%" height="100%" fill="#fff3ea"/>
<rect width="100%" height="100%" fill="url(#grain)" opacity="0.25"/>
<rect x="0" y="0" width="360" height="1800" fill="#ffe1d2" opacity="0.62"/>
<text x="72.0" y="102.0" text-anchor="start" font-family="Berkeley Mono, BerkeleyMono, ui-monospace, SFMono-Regular, Menlo, monospace" font-size="54" font-weight="700" fill="#321f1b"><tspan x="72.0" dy="0.0">Wonton</tspan><tspan x="72.0" dy="56.7">Soup</tspan></text>
<text x="75.0" y="226.0" text-anchor="start" font-family="Berkeley Mono, BerkeleyMono, ui-monospace, SFMono-Regular, Menlo, monospace" font-size="13" font-weight="400" fill="#07584f"><tspan x="75.0" dy="0.0">a proof-search system reroutes when exact is lesioned</tspan></text>
<text x="75.0" y="300.0" text-anchor="start" font-family="Berkeley Mono, BerkeleyMono, ui-monospace, SFMono-Regular, Menlo, monospace" font-size="9.5" font-weight="400" fill="#7f6256"><tspan x="75.0" dy="0.0">theorem</tspan><tspan x="75.0" dy="11.9">  hf_deepseek_prover_v1_train_00795</tspan><tspan x="75.0" dy="11.9">  :</tspan><tspan x="75.0" dy="11.9">    let A := 4444;</tspan><tspan x="75.0" dy="11.9">    let B := (Nat.digits 10 A).sum;</tspan><tspan x="75.0" dy="11.9">    let C := (Nat.digits 10 B).sum;</tspan><tspan x="75.0" dy="11.9">    C = 7 → B % 9 = 0 → B % 9 = 0</tspan></text>
<text x="72.0" y="482.0" text-anchor="start" font-family="Berkeley Mono, BerkeleyMono, ui-monospace, SFMono-Regular, Menlo, monospace" font-size="11" font-weight="700" fill="#7f6256"><tspan x="72.0" dy="0.0">baseline</tspan></text>
<path d="M98.0,500.0 L291.0,500.0" fill="none" stroke="#047f6f" stroke-width="2.2" stroke-linecap="round" opacity="0.82"/>
<circle cx="98.0" cy="500.0" r="5.4" fill="#fff3ea" stroke="#047f6f" stroke-width="2"/>
<text x="98.0" y="521.0" text-anchor="middle" font-family="Berkeley Mono, BerkeleyMono, ui-monospace, SFMono-Regular, Menlo, monospace" font-size="8.5" font-weight="400" fill="#07584f"><tspan x="98.0" dy="0.0">intro H</tspan></text>
<circle cx="136.6" cy="500.0" r="5.4" fill="#fff3ea" stroke="#047f6f" stroke-width="2"/>
<text x="136.6" y="474.0" text-anchor="middle" font-family="Berkeley Mono, BerkeleyMono, ui-monospace, SFMono-Regular, Menlo, monospace" font-size="8.5" font-weight="400" fill="#07584f"><tspan x="136.6" dy="0.0">intro H'</tspan></text>
<circle cx="175.2" cy="500.0" r="5.4" fill="#fff3ea" stroke="#047f6f" stroke-width="2"/>
<text x="175.2" y="521.0" text-anchor="middle" font-family="Berkeley Mono, BerkeleyMono, ui-monospace, SFMono-Regular, Menlo, monospace" font-size="8.5" font-weight="400" fill="#07584f"><tspan x="175.2" dy="0.0">intro H''</tspan></text>
<circle cx="213.8" cy="500.0" r="5.4" fill="#fff3ea" stroke="#047f6f" stroke-width="2"/>
<text x="213.8" y="474.0" text-anchor="middle" font-family="Berkeley Mono, BerkeleyMono, ui-monospace, SFMono-Regular, Menlo, monospace" font-size="8.5" font-weight="400" fill="#07584f"><tspan x="213.8" dy="0.0">intro H'''</tspan></text>
<circle cx="252.4" cy="500.0" r="5.4" fill="#fff3ea" stroke="#047f6f" stroke-width="2"/>
<text x="252.4" y="521.0" text-anchor="middle" font-family="Berkeley Mono, BerkeleyMono, ui-monospace, SFMono-Regular, Menlo, monospace" font-size="8.5" font-weight="400" fill="#07584f"><tspan x="252.4" dy="0.0">intro H''</tspan></text>
<circle cx="291.0" cy="500.0" r="5.4" fill="#fff3ea" stroke="#047f6f" stroke-width="2"/>
<text x="291.0" y="474.0" text-anchor="middle" font-family="Berkeley Mono, BerkeleyMono, ui-monospace, SFMono-Regular, Menlo, monospace" font-size="8.5" font-weight="400" fill="#07584f"><tspan x="291.0" dy="0.0">exact H''</tspan></text>
<text x="72.0" y="624.0" text-anchor="start" font-family="Berkeley Mono, BerkeleyMono, ui-monospace, SFMono-Regular, Menlo, monospace" font-size="11" font-weight="700" fill="#7f6256"><tspan x="72.0" dy="0.0">lesion</tspan></text>
<path d="M98.0,642.0 L291.0,642.0" fill="none" stroke="#047f6f" stroke-width="2.2" stroke-linecap="round" opacity="0.82"/>
<circle cx="98.0" cy="642.0" r="5.4" fill="#fff3ea" stroke="#047f6f" stroke-width="2"/>
<text x="98.0" y="663.0" text-anchor="middle" font-family="Berkeley Mono, BerkeleyMono, ui-monospace, SFMono-Regular, Menlo, monospace" font-size="8.5" font-weight="400" fill="#07584f"><tspan x="98.0" dy="0.0">rintro ⟨⟩</tspan></text>
<circle cx="162.3" cy="642.0" r="5.4" fill="#fff3ea" stroke="#047f6f" stroke-width="2"/>
<text x="162.3" y="616.0" text-anchor="middle" font-family="Berkeley Mono, BerkeleyMono, ui-monospace, SFMono-Regular, Menlo, monospace" font-size="8.5" font-weight="400" fill="#07584f"><tspan x="162.3" dy="0.0">rintro ⟨⟩</tspan></text>
<circle cx="226.7" cy="642.0" r="5.4" fill="#fff3ea" stroke="#047f6f" stroke-width="2"/>
<text x="226.7" y="663.0" text-anchor="middle" font-family="Berkeley Mono, BerkeleyMono, ui-monospace, SFMono-Regular, Menlo, monospace" font-size="8.5" font-weight="400" fill="#07584f"><tspan x="226.7" dy="0.0">rintro ⟨⟩</tspan></text>
<circle cx="291.0" cy="642.0" r="5.4" fill="#fff3ea" stroke="#047f6f" stroke-width="2"/>
<text x="291.0" y="616.0" text-anchor="middle" font-family="Berkeley Mono, BerkeleyMono, ui-monospace, SFMono-Regular, Menlo, monospace" font-size="8.5" font-weight="400" fill="#07584f"><tspan x="291.0" dy="0.0">rintro ⟨⟩</tspan></text>
<path d="M144.3,608.0 L144.3,676.0" stroke="#df4f68" stroke-width="1.4" stroke-dasharray="4 4" opacity="0.82"/>
<circle cx="144.3" cy="602.0" r="7" fill="#fff3ea" stroke="#df4f68" stroke-width="2"/>
<path d="M140.8,598.5 L147.8,605.5 M147.8,598.5 L140.8,605.5" stroke="#df4f68" stroke-width="1.7" stroke-linecap="round"/>
<text x="157.3" y="606.0" text-anchor="start" font-family="Berkeley Mono, BerkeleyMono, ui-monospace, SFMono-Regular, Menlo, monospace" font-size="8.5" font-weight="400" fill="#df4f68"><tspan x="157.3" dy="0.0">8 exact blocks</tspan></text>
<text x="200.0" y="792.0" text-anchor="middle" font-family="Berkeley Mono, BerkeleyMono, ui-monospace, SFMono-Regular, Menlo, monospace" font-size="25" font-weight="700" fill="#321f1b"><tspan x="200.0" dy="0.0">wild</tspan></text>
<text x="200.0" y="820.0" text-anchor="middle" font-family="Berkeley Mono, BerkeleyMono, ui-monospace, SFMono-Regular, Menlo, monospace" font-size="14" font-weight="400" fill="#7f6256"><tspan x="200.0" dy="0.0">exact path</tspan></text>
<path d="M200.0,880.0 C224.0,880.0 134.0,914.0 158.0,914.0" fill="none" stroke="#d5b9aa" stroke-width="1.25" stroke-dasharray="4 6" stroke-opacity="0.54"/>
<circle cx="158.0" cy="914.0" r="4.6" fill="#fff3ea" stroke="#d5b9aa" stroke-width="1.3" opacity="0.85"/>
<text x="150.0" y="907.0" text-anchor="end" font-family="Berkeley Mono, BerkeleyMono, ui-monospace, SFMono-Regular, Menlo, monospace" font-size="11" font-weight="400" fill="#a67c6e"><tspan x="150.0" dy="0.0">intro C</tspan></text>
<path d="M200.0,880.0 C224.0,880.0 228.0,926.0 252.0,926.0" fill="none" stroke="#d5b9aa" stroke-width="1.25" stroke-dasharray="4 6" stroke-opacity="0.54"/>
<circle cx="252.0" cy="926.0" r="4.6" fill="#fff3ea" stroke="#d5b9aa" stroke-width="1.3" opacity="0.85"/>
<text x="260.0" y="919.0" text-anchor="start" font-family="Berkeley Mono, BerkeleyMono, ui-monospace, SFMono-Regular, Menlo, monospace" font-size="11" font-weight="400" fill="#a67c6e"><tspan x="260.0" dy="0.0">intro h</tspan></text>
<path d="M228.2,1000.0 C252.2,1000.0 162.2,1034.0 186.2,1034.0" fill="none" stroke="#d5b9aa" stroke-width="1.25" stroke-dasharray="4 6" stroke-opacity="0.54"/>
<circle cx="186.2" cy="1034.0" r="4.6" fill="#fff3ea" stroke="#d5b9aa" stroke-width="1.3" opacity="0.85"/>
<text x="178.2" y="1027.0" text-anchor="end" font-family="Berkeley Mono, BerkeleyMono, ui-monospace, SFMono-Regular, Menlo, monospace" font-size="11" font-weight="400" fill="#a67c6e"><tspan x="178.2" dy="0.0">intro H</tspan></text>
<path d="M228.2,1000.0 C252.2,1000.0 256.2,1046.0 280.2,1046.0" fill="none" stroke="#d5b9aa" stroke-width="1.25" stroke-dasharray="4 6" stroke-opacity="0.54"/>
<circle cx="280.2" cy="1046.0" r="4.6" fill="#fff3ea" stroke="#d5b9aa" stroke-width="1.3" opacity="0.85"/>
<text x="288.2" y="1039.0" text-anchor="start" font-family="Berkeley Mono, BerkeleyMono, ui-monospace, SFMono-Regular, Menlo, monospace" font-size="11" font-weight="400" fill="#a67c6e"><tspan x="288.2" dy="0.0">intro _</tspan></text>
<path d="M235.1,1120.0 C259.1,1120.0 169.1,1154.0 193.1,1154.0" fill="none" stroke="#d5b9aa" stroke-width="1.25" stroke-dasharray="4 6" stroke-opacity="0.54"/>
<circle cx="193.1" cy="1154.0" r="4.6" fill="#fff3ea" stroke="#d5b9aa" stroke-width="1.3" opacity="0.85"/>
<path d="M235.1,1120.0 C259.1,1120.0 263.1,1166.0 287.1,1166.0" fill="none" stroke="#d5b9aa" stroke-width="1.25" stroke-dasharray="4 6" stroke-opacity="0.54"/>
<circle cx="287.1" cy="1166.0" r="4.6" fill="#fff3ea" stroke="#d5b9aa" stroke-width="1.3" opacity="0.85"/>
<path d="M215.4,1240.0 C239.4,1240.0 149.4,1274.0 173.4,1274.0" fill="none" stroke="#d5b9aa" stroke-width="1.25" stroke-dasharray="4 6" stroke-opacity="0.54"/>
<circle cx="173.4" cy="1274.0" r="4.6" fill="#fff3ea" stroke="#d5b9aa" stroke-width="1.3" opacity="0.85"/>
<path d="M184.1,1360.0 C208.1,1360.0 118.1,1394.0 142.1,1394.0" fill="none" stroke="#d5b9aa" stroke-width="1.25" stroke-dasharray="4 6" stroke-opacity="0.54"/>
<circle cx="142.1" cy="1394.0" r="4.6" fill="#fff3ea" stroke="#d5b9aa" stroke-width="1.3" opacity="0.85"/>
<path d="M184.1,1360.0 C208.1,1360.0 212.1,1406.0 236.1,1406.0" fill="none" stroke="#d5b9aa" stroke-width="1.25" stroke-dasharray="4 6" stroke-opacity="0.54"/>
<circle cx="236.1" cy="1406.0" r="4.6" fill="#fff3ea" stroke="#d5b9aa" stroke-width="1.3" opacity="0.85"/>
<path d="M164.8,1480.0 C188.8,1480.0 98.8,1498.0 122.8,1498.0" fill="none" stroke="#d5b9aa" stroke-width="1.25" stroke-dasharray="4 6" stroke-opacity="0.54"/>
<circle cx="122.8" cy="1498.0" r="4.6" fill="#fff3ea" stroke="#d5b9aa" stroke-width="1.3" opacity="0.85"/>
<path d="M164.8,1480.0 C188.8,1480.0 192.8,1498.0 216.8,1498.0" fill="none" stroke="#d5b9aa" stroke-width="1.25" stroke-dasharray="4 6" stroke-opacity="0.54"/>
<circle cx="216.8" cy="1498.0" r="4.6" fill="#fff3ea" stroke="#d5b9aa" stroke-width="1.3" opacity="0.85"/>
<path d="M200.0,880.0 C200.0,935.2 228.2,944.8 228.2,1000.0" fill="none" stroke="#047f6f" stroke-width="4.7" stroke-linecap="round" stroke-opacity="0.98"/>
<path d="M219.4,952.2 L210.6,941.0 L217.3,938.1 Z" fill="#047f6f" opacity="0.9"/>
<text x="222.1" y="940.0" text-anchor="start" font-family="Berkeley Mono, BerkeleyMono, ui-monospace, SFMono-Regular, Menlo, monospace" font-size="15" font-weight="400" fill="#07584f"><tspan x="222.1" dy="0.0">intro H</tspan></text>
<path d="M228.2,1000.0 C228.2,1055.2 235.1,1064.8 235.1,1120.0" fill="none" stroke="#047f6f" stroke-width="4.7" stroke-linecap="round" stroke-opacity="0.98"/>
<path d="M233.0,1072.8 L227.9,1059.5 L235.2,1058.8 Z" fill="#047f6f" opacity="0.9"/>
<text x="239.6" y="1060.0" text-anchor="start" font-family="Berkeley Mono, BerkeleyMono, ui-monospace, SFMono-Regular, Menlo, monospace" font-size="15" font-weight="400" fill="#07584f"><tspan x="239.6" dy="0.0">intro H'</tspan></text>
<path d="M235.1,1120.0 C235.1,1175.2 215.4,1184.8 215.4,1240.0" fill="none" stroke="#047f6f" stroke-width="4.7" stroke-linecap="round" stroke-opacity="0.98"/>
<path d="M221.5,1192.5 L221.9,1178.3 L228.9,1180.4 Z" fill="#047f6f" opacity="0.9"/>
<text x="233.2" y="1180.0" text-anchor="start" font-family="Berkeley Mono, BerkeleyMono, ui-monospace, SFMono-Regular, Menlo, monospace" font-size="15" font-weight="400" fill="#07584f"><tspan x="233.2" dy="0.0">intro H''</tspan></text>
<path d="M215.4,1240.0 C215.4,1295.2 184.1,1304.8 184.1,1360.0" fill="none" stroke="#047f6f" stroke-width="4.7" stroke-linecap="round" stroke-opacity="0.98"/>
<path d="M194.0,1312.1 L196.5,1298.1 L203.2,1301.2 Z" fill="#047f6f" opacity="0.9"/>
<text x="207.7" y="1300.0" text-anchor="start" font-family="Berkeley Mono, BerkeleyMono, ui-monospace, SFMono-Regular, Menlo, monospace" font-size="15" font-weight="400" fill="#07584f"><tspan x="207.7" dy="0.0">intro H'''</tspan></text>
<path d="M184.1,1360.0 C184.1,1415.2 164.8,1424.8 164.8,1480.0" fill="none" stroke="#047f6f" stroke-width="4.7" stroke-linecap="round" stroke-opacity="0.98"/>
<path d="M170.8,1432.6 L171.1,1418.3 L178.1,1420.4 Z" fill="#047f6f" opacity="0.9"/>
<text x="182.4" y="1420.0" text-anchor="start" font-family="Berkeley Mono, BerkeleyMono, ui-monospace, SFMono-Regular, Menlo, monospace" font-size="15" font-weight="400" fill="#07584f"><tspan x="182.4" dy="0.0">intro H''</tspan></text>
<path d="M164.8,1480.0 C164.8,1512.0 164.8,1506.0 164.8,1538.0" fill="none" stroke="#047f6f" stroke-width="4.2" stroke-linecap="round" stroke-opacity="0.98"/>
<path d="M164.8,1519.0 L161.1,1505.2 L168.5,1505.2 Z" fill="#047f6f" opacity="0.9"/>
<circle cx="164.8" cy="1538.0" r="11.5" fill="#28714b" stroke="#28714b" stroke-width="2" opacity="1.0"/>
<text x="194.8" y="1524.0" text-anchor="start" font-family="Berkeley Mono, BerkeleyMono, ui-monospace, SFMono-Regular, Menlo, monospace" font-size="15" font-weight="400" fill="#07584f"><tspan x="194.8" dy="0.0">exact H''</tspan></text>
<text x="164.8" y="1570.0" text-anchor="middle" font-family="Berkeley Mono, BerkeleyMono, ui-monospace, SFMono-Regular, Menlo, monospace" font-size="14" font-weight="400" fill="#28714b"><tspan x="164.8" dy="0.0">solved</tspan></text>
<circle cx="200.0" cy="880.0" r="9.8" fill="#fff3ea" stroke="#321f1b" stroke-width="2.2"/>
<circle cx="228.2" cy="1000.0" r="7.8" fill="#fff3ea" stroke="#321f1b" stroke-width="1.8"/>
<circle cx="235.1" cy="1120.0" r="7.8" fill="#fff3ea" stroke="#321f1b" stroke-width="1.8"/>
<circle cx="215.4" cy="1240.0" r="7.8" fill="#fff3ea" stroke="#321f1b" stroke-width="1.8"/>
<circle cx="184.1" cy="1360.0" r="7.8" fill="#fff3ea" stroke="#321f1b" stroke-width="1.8"/>
<circle cx="164.8" cy="1480.0" r="8.4" fill="#fff3ea" stroke="#28714b" stroke-width="2.4"/>
<text x="765.0" y="332.0" text-anchor="middle" font-family="Berkeley Mono, BerkeleyMono, ui-monospace, SFMono-Regular, Menlo, monospace" font-size="25" font-weight="700" fill="#321f1b"><tspan x="765.0" dy="0.0">lesioned search</tspan></text>
<text x="765.0" y="360.0" text-anchor="middle" font-family="Berkeley Mono, BerkeleyMono, ui-monospace, SFMono-Regular, Menlo, monospace" font-size="14" font-weight="400" fill="#df4f68"><tspan x="765.0" dy="0.0">reroute recovered</tspan></text>
<path d="M765.0,420.0 C789.0,420.0 699.0,454.0 723.0,454.0" fill="none" stroke="#d5b9aa" stroke-width="1.25" stroke-dasharray="4 6" stroke-opacity="0.54"/>
<circle cx="723.0" cy="454.0" r="4.6" fill="#fff3ea" stroke="#d5b9aa" stroke-width="1.3" opacity="0.85"/>
<text x="715.0" y="447.0" text-anchor="end" font-family="Berkeley Mono, BerkeleyMono, ui-monospace, SFMono-Regular, Menlo, monospace" font-size="10" font-weight="400" fill="#a67c6e"><tspan x="715.0" dy="0.0">clear A B C</tspan></text>
<path d="M765.0,420.0 C789.0,420.0 793.0,466.0 817.0,466.0" fill="none" stroke="#d5b9aa" stroke-width="1.25" stroke-dasharray="4 6" stroke-opacity="0.54"/>
<circle cx="817.0" cy="466.0" r="4.6" fill="#fff3ea" stroke="#d5b9aa" stroke-width="1.3" opacity="0.85"/>
<path d="M605.5,636.0 C629.5,636.0 617.1,595.4 641.1,595.4" fill="none" stroke="#c5aa9d" stroke-width="2.1" stroke-opacity="0.75"/>
<circle cx="641.1" cy="595.4" r="8.4" fill="#fff3ea" stroke="#df4f68" stroke-width="2"/>
<path d="M636.9,591.2 L645.3,599.6 M645.3,591.2 L636.9,599.6" stroke="#df4f68" stroke-width="2" stroke-linecap="round"/>
<text x="654.1" y="582.4" text-anchor="start" font-family="Berkeley Mono, BerkeleyMono, ui-monospace, SFMono-Regular, Menlo, monospace" font-size="10.5" font-weight="400" fill="#df4f68"><tspan x="654.1" dy="0.0">blocked: exact</tspan></text>
<path d="M605.5,636.0 C629.5,636.0 617.1,676.6 641.1,676.6" fill="none" stroke="#c5aa9d" stroke-width="2.1" stroke-opacity="0.75"/>
<circle cx="641.1" cy="676.6" r="8.4" fill="#fff3ea" stroke="#df4f68" stroke-width="2"/>
<path d="M636.9,672.4 L645.3,680.8 M645.3,672.4 L636.9,680.8" stroke="#df4f68" stroke-width="2" stroke-linecap="round"/>
<text x="654.1" y="695.6" text-anchor="start" font-family="Berkeley Mono, BerkeleyMono, ui-monospace, SFMono-Regular, Menlo, monospace" font-size="10.5" font-weight="400" fill="#df4f68"><tspan x="654.1" dy="0.0">blocked: exact</tspan></text>
<path d="M605.5,636.0 C629.5,636.0 539.5,670.0 563.5,670.0" fill="none" stroke="#d5b9aa" stroke-width="1.25" stroke-dasharray="4 6" stroke-opacity="0.54"/>
<circle cx="563.5" cy="670.0" r="4.6" fill="#fff3ea" stroke="#d5b9aa" stroke-width="1.3" opacity="0.85"/>
<text x="555.5" y="663.0" text-anchor="end" font-family="Berkeley Mono, BerkeleyMono, ui-monospace, SFMono-Regular, Menlo, monospace" font-size="10" font-weight="400" fill="#a67c6e"><tspan x="555.5" dy="0.0">done</tspan></text>
<path d="M525.8,852.0 C549.8,852.0 459.8,886.0 483.8,886.0" fill="none" stroke="#d5b9aa" stroke-width="1.25" stroke-dasharray="4 6" stroke-opacity="0.54"/>
<circle cx="483.8" cy="886.0" r="4.6" fill="#fff3ea" stroke="#d5b9aa" stroke-width="1.3" opacity="0.85"/>
<path d="M525.8,852.0 C549.8,852.0 553.8,898.0 577.8,898.0" fill="none" stroke="#d5b9aa" stroke-width="1.25" stroke-dasharray="4 6" stroke-opacity="0.54"/>
<circle cx="577.8" cy="898.0" r="4.6" fill="#fff3ea" stroke="#d5b9aa" stroke-width="1.3" opacity="0.85"/>
<path d="M685.2,852.0 C709.2,852.0 619.2,886.0 643.2,886.0" fill="none" stroke="#d5b9aa" stroke-width="1.25" stroke-dasharray="4 6" stroke-opacity="0.54"/>
<circle cx="643.2" cy="886.0" r="4.6" fill="#fff3ea" stroke="#d5b9aa" stroke-width="1.3" opacity="0.85"/>
<path d="M685.2,852.0 C709.2,852.0 713.2,898.0 737.2,898.0" fill="none" stroke="#d5b9aa" stroke-width="1.25" stroke-dasharray="4 6" stroke-opacity="0.54"/>
<circle cx="737.2" cy="898.0" r="4.6" fill="#fff3ea" stroke="#d5b9aa" stroke-width="1.3" opacity="0.85"/>
<path d="M485.9,1068.0 C509.9,1068.0 419.9,1102.0 443.9,1102.0" fill="none" stroke="#d5b9aa" stroke-width="1.25" stroke-dasharray="4 6" stroke-opacity="0.54"/>
<circle cx="443.9" cy="1102.0" r="4.6" fill="#fff3ea" stroke="#d5b9aa" stroke-width="1.3" opacity="0.85"/>
<path d="M645.4,1068.0 C669.4,1068.0 579.4,1102.0 603.4,1102.0" fill="none" stroke="#d5b9aa" stroke-width="1.25" stroke-dasharray="4 6" stroke-opacity="0.54"/>
<circle cx="603.4" cy="1102.0" r="4.6" fill="#fff3ea" stroke="#d5b9aa" stroke-width="1.3" opacity="0.85"/>
<path d="M964.4,1068.0 C988.4,1068.0 976.0,1027.4 1000.0,1027.4" fill="none" stroke="#c5aa9d" stroke-width="2.1" stroke-opacity="0.75"/>
<circle cx="1000.0" cy="1027.4" r="8.4" fill="#fff3ea" stroke="#df4f68" stroke-width="2"/>
<path d="M995.8,1023.2 L1004.2,1031.6 M1004.2,1023.2 L995.8,1031.6" stroke="#df4f68" stroke-width="2" stroke-linecap="round"/>
<text x="987.0" y="1014.4" text-anchor="end" font-family="Berkeley Mono, BerkeleyMono, ui-monospace, SFMono-Regular, Menlo, monospace" font-size="10.5" font-weight="400" fill="#df4f68"><tspan x="987.0" dy="0.0">blocked: exact</tspan></text>
<path d="M964.4,1068.0 C988.4,1068.0 898.4,1102.0 922.4,1102.0" fill="none" stroke="#d5b9aa" stroke-width="1.25" stroke-dasharray="4 6" stroke-opacity="0.54"/>
<circle cx="922.4" cy="1102.0" r="4.6" fill="#fff3ea" stroke="#d5b9aa" stroke-width="1.3" opacity="0.85"/>
<path d="M565.6,1068.0 C589.6,1068.0 577.3,1027.4 601.3,1027.4" fill="none" stroke="#c5aa9d" stroke-width="2.1" stroke-opacity="0.75"/>
<circle cx="601.3" cy="1027.4" r="8.4" fill="#fff3ea" stroke="#df4f68" stroke-width="2"/>
<path d="M597.1,1023.2 L605.5,1031.6 M605.5,1023.2 L597.1,1031.6" stroke="#df4f68" stroke-width="2" stroke-linecap="round"/>
<path d="M725.1,1068.0 C749.1,1068.0 659.1,1102.0 683.1,1102.0" fill="none" stroke="#d5b9aa" stroke-width="1.25" stroke-dasharray="4 6" stroke-opacity="0.54"/>
<circle cx="683.1" cy="1102.0" r="4.6" fill="#fff3ea" stroke="#d5b9aa" stroke-width="1.3" opacity="0.85"/>
<path d="M725.1,1068.0 C749.1,1068.0 753.1,1114.0 777.1,1114.0" fill="none" stroke="#d5b9aa" stroke-width="1.25" stroke-dasharray="4 6" stroke-opacity="0.54"/>
<circle cx="777.1" cy="1114.0" r="4.6" fill="#fff3ea" stroke="#d5b9aa" stroke-width="1.3" opacity="0.85"/>
<path d="M1044.1,1068.0 C1068.1,1068.0 1055.8,1027.4 1079.8,1027.4" fill="none" stroke="#c5aa9d" stroke-width="2.1" stroke-opacity="0.75"/>
<circle cx="1079.8" cy="1027.4" r="8.4" fill="#fff3ea" stroke="#df4f68" stroke-width="2"/>
<path d="M1075.6,1023.2 L1084.0,1031.6 M1084.0,1023.2 L1075.6,1031.6" stroke="#df4f68" stroke-width="2" stroke-linecap="round"/>
<path d="M1044.1,1068.0 C1068.1,1068.0 978.1,1102.0 1002.1,1102.0" fill="none" stroke="#d5b9aa" stroke-width="1.25" stroke-dasharray="4 6" stroke-opacity="0.54"/>
<circle cx="1002.1" cy="1102.0" r="4.6" fill="#fff3ea" stroke="#d5b9aa" stroke-width="1.3" opacity="0.85"/>
<path d="M1044.1,1068.0 C1068.1,1068.0 1072.1,1114.0 1096.1,1114.0" fill="none" stroke="#d5b9aa" stroke-width="1.25" stroke-dasharray="4 6" stroke-opacity="0.54"/>
<circle cx="1096.1" cy="1114.0" r="4.6" fill="#fff3ea" stroke="#d5b9aa" stroke-width="1.3" opacity="0.85"/>
<path d="M565.6,1284.0 C589.6,1284.0 499.6,1318.0 523.6,1318.0" fill="none" stroke="#d5b9aa" stroke-width="1.25" stroke-dasharray="4 6" stroke-opacity="0.54"/>
<circle cx="523.6" cy="1318.0" r="4.6" fill="#fff3ea" stroke="#d5b9aa" stroke-width="1.3" opacity="0.85"/>
<path d="M565.6,1284.0 C589.6,1284.0 593.6,1330.0 617.6,1330.0" fill="none" stroke="#d5b9aa" stroke-width="1.25" stroke-dasharray="4 6" stroke-opacity="0.54"/>
<circle cx="617.6" cy="1330.0" r="4.6" fill="#fff3ea" stroke="#d5b9aa" stroke-width="1.3" opacity="0.85"/>
<path d="M884.6,1284.0 C908.6,1284.0 896.3,1243.4 920.3,1243.4" fill="none" stroke="#c5aa9d" stroke-width="2.1" stroke-opacity="0.75"/>
<circle cx="920.3" cy="1243.4" r="8.4" fill="#fff3ea" stroke="#df4f68" stroke-width="2"/>
<path d="M916.1,1239.2 L924.5,1247.6 M924.5,1239.2 L916.1,1247.6" stroke="#df4f68" stroke-width="2" stroke-linecap="round"/>
<path d="M884.6,1284.0 C908.6,1284.0 818.6,1318.0 842.6,1318.0" fill="none" stroke="#d5b9aa" stroke-width="1.25" stroke-dasharray="4 6" stroke-opacity="0.54"/>
<circle cx="842.6" cy="1318.0" r="4.6" fill="#fff3ea" stroke="#d5b9aa" stroke-width="1.3" opacity="0.85"/>
<path d="M884.6,1284.0 C908.6,1284.0 912.6,1330.0 936.6,1330.0" fill="none" stroke="#d5b9aa" stroke-width="1.25" stroke-dasharray="4 6" stroke-opacity="0.54"/>
<circle cx="936.6" cy="1330.0" r="4.6" fill="#fff3ea" stroke="#d5b9aa" stroke-width="1.3" opacity="0.85"/>
<path d="M725.1,1284.0 C749.1,1284.0 659.1,1318.0 683.1,1318.0" fill="none" stroke="#d5b9aa" stroke-width="1.25" stroke-dasharray="4 6" stroke-opacity="0.54"/>
<circle cx="683.1" cy="1318.0" r="4.6" fill="#fff3ea" stroke="#d5b9aa" stroke-width="1.3" opacity="0.85"/>
<path d="M1044.1,1284.0 C1068.1,1284.0 1055.8,1243.4 1079.8,1243.4" fill="none" stroke="#c5aa9d" stroke-width="2.1" stroke-opacity="0.75"/>
<circle cx="1079.8" cy="1243.4" r="8.4" fill="#fff3ea" stroke="#df4f68" stroke-width="2"/>
<path d="M1075.6,1239.2 L1084.0,1247.6 M1084.0,1239.2 L1075.6,1247.6" stroke="#df4f68" stroke-width="2" stroke-linecap="round"/>
<path d="M1044.1,1284.0 C1068.1,1284.0 978.1,1318.0 1002.1,1318.0" fill="none" stroke="#d5b9aa" stroke-width="1.25" stroke-dasharray="4 6" stroke-opacity="0.54"/>
<circle cx="1002.1" cy="1318.0" r="4.6" fill="#fff3ea" stroke="#d5b9aa" stroke-width="1.3" opacity="0.85"/>
<path d="M1044.1,1284.0 C1068.1,1284.0 1072.1,1330.0 1096.1,1330.0" fill="none" stroke="#d5b9aa" stroke-width="1.25" stroke-dasharray="4 6" stroke-opacity="0.54"/>
<circle cx="1096.1" cy="1330.0" r="4.6" fill="#fff3ea" stroke="#d5b9aa" stroke-width="1.3" opacity="0.85"/>
<path d="M565.6,1500.0 C589.6,1500.0 577.3,1459.4 601.3,1459.4" fill="none" stroke="#c5aa9d" stroke-width="2.1" stroke-opacity="0.75"/>
<circle cx="601.3" cy="1459.4" r="8.4" fill="#fff3ea" stroke="#df4f68" stroke-width="2"/>
<path d="M597.1,1455.2 L605.5,1463.6 M605.5,1455.2 L597.1,1463.6" stroke="#df4f68" stroke-width="2" stroke-linecap="round"/>
<path d="M565.6,1500.0 C589.6,1500.0 499.6,1518.0 523.6,1518.0" fill="none" stroke="#d5b9aa" stroke-width="1.25" stroke-dasharray="4 6" stroke-opacity="0.54"/>
<circle cx="523.6" cy="1518.0" r="4.6" fill="#fff3ea" stroke="#d5b9aa" stroke-width="1.3" opacity="0.85"/>
<path d="M884.6,1500.0 C908.6,1500.0 818.6,1518.0 842.6,1518.0" fill="none" stroke="#d5b9aa" stroke-width="1.25" stroke-dasharray="4 6" stroke-opacity="0.54"/>
<circle cx="842.6" cy="1518.0" r="4.6" fill="#fff3ea" stroke="#d5b9aa" stroke-width="1.3" opacity="0.85"/>
<path d="M884.6,1500.0 C908.6,1500.0 912.6,1518.0 936.6,1518.0" fill="none" stroke="#d5b9aa" stroke-width="1.25" stroke-dasharray="4 6" stroke-opacity="0.54"/>
<circle cx="936.6" cy="1518.0" r="4.6" fill="#fff3ea" stroke="#d5b9aa" stroke-width="1.3" opacity="0.85"/>
<path d="M725.1,1500.0 C749.1,1500.0 659.1,1518.0 683.1,1518.0" fill="none" stroke="#d5b9aa" stroke-width="1.25" stroke-dasharray="4 6" stroke-opacity="0.54"/>
<circle cx="683.1" cy="1518.0" r="4.6" fill="#fff3ea" stroke="#d5b9aa" stroke-width="1.3" opacity="0.85"/>
<path d="M1044.1,1500.0 C1068.1,1500.0 978.1,1518.0 1002.1,1518.0" fill="none" stroke="#d5b9aa" stroke-width="1.25" stroke-dasharray="4 6" stroke-opacity="0.54"/>
<circle cx="1002.1" cy="1518.0" r="4.6" fill="#fff3ea" stroke="#d5b9aa" stroke-width="1.3" opacity="0.85"/>
<path d="M765.0,420.0 C765.0,519.4 924.5,536.6 924.5,636.0" fill="none" stroke="#c5aa9d" stroke-width="1.55" stroke-linecap="round" stroke-opacity="0.45"/>
<path d="M605.5,636.0 C605.5,735.4 685.2,752.6 685.2,852.0" fill="none" stroke="#c5aa9d" stroke-width="1.55" stroke-linecap="round" stroke-opacity="0.45"/>
<path d="M924.5,636.0 C924.5,735.4 844.8,752.6 844.8,852.0" fill="none" stroke="#c5aa9d" stroke-width="1.55" stroke-linecap="round" stroke-opacity="0.45"/>
<path d="M924.5,636.0 C924.5,735.4 1004.2,752.6 1004.2,852.0" fill="none" stroke="#c5aa9d" stroke-width="1.55" stroke-linecap="round" stroke-opacity="0.45"/>
<path d="M525.8,852.0 C525.8,951.4 565.6,968.6 565.6,1068.0" fill="none" stroke="#c5aa9d" stroke-width="1.55" stroke-linecap="round" stroke-opacity="0.45"/>
<path d="M685.2,852.0 C685.2,951.4 645.4,968.6 645.4,1068.0" fill="none" stroke="#c5aa9d" stroke-width="1.55" stroke-linecap="round" stroke-opacity="0.45"/>
<path d="M685.2,852.0 C685.2,951.4 725.1,968.6 725.1,1068.0" fill="none" stroke="#c5aa9d" stroke-width="1.55" stroke-linecap="round" stroke-opacity="0.45"/>
<path d="M844.8,852.0 C844.8,951.4 804.9,968.6 804.9,1068.0" fill="none" stroke="#c5aa9d" stroke-width="1.55" stroke-linecap="round" stroke-opacity="0.45"/>
<path d="M844.8,852.0 C844.8,951.4 884.6,968.6 884.6,1068.0" fill="none" stroke="#c5aa9d" stroke-width="1.55" stroke-linecap="round" stroke-opacity="0.45"/>
<path d="M1004.2,852.0 C1004.2,951.4 964.4,968.6 964.4,1068.0" fill="none" stroke="#c5aa9d" stroke-width="1.55" stroke-linecap="round" stroke-opacity="0.45"/>
<path d="M1004.2,852.0 C1004.2,951.4 1044.1,968.6 1044.1,1068.0" fill="none" stroke="#c5aa9d" stroke-width="1.55" stroke-linecap="round" stroke-opacity="0.45"/>
<path d="M565.6,1068.0 C565.6,1167.4 565.6,1184.6 565.6,1284.0" fill="none" stroke="#c5aa9d" stroke-width="1.55" stroke-linecap="round" stroke-opacity="0.45"/>
<path d="M884.6,1068.0 C884.6,1167.4 884.6,1184.6 884.6,1284.0" fill="none" stroke="#c5aa9d" stroke-width="1.55" stroke-linecap="round" stroke-opacity="0.45"/>
<path d="M725.1,1068.0 C725.1,1167.4 725.1,1184.6 725.1,1284.0" fill="none" stroke="#c5aa9d" stroke-width="1.55" stroke-linecap="round" stroke-opacity="0.45"/>
<path d="M1044.1,1068.0 C1044.1,1167.4 1044.1,1184.6 1044.1,1284.0" fill="none" stroke="#c5aa9d" stroke-width="1.55" stroke-linecap="round" stroke-opacity="0.45"/>
<path d="M565.6,1284.0 C565.6,1383.4 565.6,1400.6 565.6,1500.0" fill="none" stroke="#c5aa9d" stroke-width="1.55" stroke-linecap="round" stroke-opacity="0.45"/>
<path d="M884.6,1284.0 C884.6,1383.4 884.6,1400.6 884.6,1500.0" fill="none" stroke="#c5aa9d" stroke-width="1.55" stroke-linecap="round" stroke-opacity="0.45"/>
<path d="M725.1,1284.0 C725.1,1383.4 725.1,1400.6 725.1,1500.0" fill="none" stroke="#c5aa9d" stroke-width="1.55" stroke-linecap="round" stroke-opacity="0.45"/>
<path d="M1044.1,1284.0 C1044.1,1383.4 1044.1,1400.6 1044.1,1500.0" fill="none" stroke="#c5aa9d" stroke-width="1.55" stroke-linecap="round" stroke-opacity="0.45"/>
<path d="M765.0,420.0 C765.0,519.4 605.5,536.6 605.5,636.0" fill="none" stroke="#047f6f" stroke-width="4.7" stroke-linecap="round" stroke-opacity="0.98"/>
<path d="M666.9,541.5 L675.8,530.4 L680.1,536.3 Z" fill="#047f6f" opacity="0.9"/>
<text x="693.2" y="528.0" text-anchor="start" font-family="Berkeley Mono, BerkeleyMono, ui-monospace, SFMono-Regular, Menlo, monospace" font-size="15" font-weight="400" fill="#07584f"><tspan x="693.2" dy="0.0">rintro ⟨⟩</tspan></text>
<path d="M605.5,636.0 C605.5,735.4 525.8,752.6 525.8,852.0" fill="none" stroke="#047f6f" stroke-width="4.7" stroke-linecap="round" stroke-opacity="0.98"/>
<path d="M555.2,759.4 L559.8,745.9 L565.9,750.0 Z" fill="#047f6f" opacity="0.9"/>
<text x="573.6" y="744.0" text-anchor="start" font-family="Berkeley Mono, BerkeleyMono, ui-monospace, SFMono-Regular, Menlo, monospace" font-size="15" font-weight="400" fill="#07584f"><tspan x="573.6" dy="0.0">rintro ⟨⟩</tspan></text>
<path d="M525.8,852.0 C525.8,951.4 485.9,968.6 485.9,1068.0" fill="none" stroke="#047f6f" stroke-width="4.7" stroke-linecap="round" stroke-opacity="0.98"/>
<path d="M500.3,976.4 L501.2,962.1 L508.2,964.5 Z" fill="#047f6f" opacity="0.9"/>
<text x="513.8" y="960.0" text-anchor="start" font-family="Berkeley Mono, BerkeleyMono, ui-monospace, SFMono-Regular, Menlo, monospace" font-size="15" font-weight="400" fill="#07584f"><tspan x="513.8" dy="0.0">rintro ⟨⟩</tspan></text>
<path d="M485.9,1068.0 C485.9,1100.0 485.9,1094.0 485.9,1126.0" fill="none" stroke="#047f6f" stroke-width="4.2" stroke-linecap="round" stroke-opacity="0.98"/>
<path d="M485.9,1107.0 L482.2,1093.2 L489.6,1093.2 Z" fill="#047f6f" opacity="0.9"/>
<circle cx="485.9" cy="1126.0" r="11.5" fill="#28714b" stroke="#28714b" stroke-width="2" opacity="1.0"/>
<text x="515.9" y="1112.0" text-anchor="start" font-family="Berkeley Mono, BerkeleyMono, ui-monospace, SFMono-Regular, Menlo, monospace" font-size="15" font-weight="400" fill="#07584f"><tspan x="515.9" dy="0.0">rintro ⟨⟩</tspan></text>
<text x="485.9" y="1158.0" text-anchor="middle" font-family="Berkeley Mono, BerkeleyMono, ui-monospace, SFMono-Regular, Menlo, monospace" font-size="14" font-weight="400" fill="#28714b"><tspan x="485.9" dy="0.0">solved</tspan></text>
<path d="M804.9,1068.0 C804.9,1100.0 804.9,1080.0 804.9,1112.0" fill="none" stroke="#c5aa9d" stroke-width="1.45" stroke-linecap="round" stroke-opacity="0.42"/>
<circle cx="804.9" cy="1112.0" r="7.5" fill="#9fbc94" stroke="#9fbc94" stroke-width="2" opacity="0.48"/>
<path d="M645.4,1068.0 C645.4,1100.0 645.4,1080.0 645.4,1112.0" fill="none" stroke="#c5aa9d" stroke-width="1.45" stroke-linecap="round" stroke-opacity="0.42"/>
<circle cx="645.4" cy="1112.0" r="7.5" fill="#9fbc94" stroke="#9fbc94" stroke-width="2" opacity="0.48"/>
<path d="M964.4,1068.0 C964.4,1100.0 964.4,1080.0 964.4,1112.0" fill="none" stroke="#c5aa9d" stroke-width="1.45" stroke-linecap="round" stroke-opacity="0.42"/>
<circle cx="964.4" cy="1112.0" r="7.5" fill="#9fbc94" stroke="#9fbc94" stroke-width="2" opacity="0.48"/>
<path d="M565.6,1500.0 C565.6,1532.0 565.6,1512.0 565.6,1544.0" fill="none" stroke="#c5aa9d" stroke-width="1.45" stroke-linecap="round" stroke-opacity="0.42"/>
<circle cx="565.6" cy="1544.0" r="7.5" fill="#9fbc94" stroke="#9fbc94" stroke-width="2" opacity="0.48"/>
<path d="M884.6,1500.0 C884.6,1532.0 884.6,1512.0 884.6,1544.0" fill="none" stroke="#c5aa9d" stroke-width="1.45" stroke-linecap="round" stroke-opacity="0.42"/>
<circle cx="884.6" cy="1544.0" r="7.5" fill="#9fbc94" stroke="#9fbc94" stroke-width="2" opacity="0.48"/>
<path d="M725.1,1500.0 C725.1,1532.0 725.1,1512.0 725.1,1544.0" fill="none" stroke="#c5aa9d" stroke-width="1.45" stroke-linecap="round" stroke-opacity="0.42"/>
<circle cx="725.1" cy="1544.0" r="7.5" fill="#9fbc94" stroke="#9fbc94" stroke-width="2" opacity="0.48"/>
<path d="M1044.1,1500.0 C1044.1,1532.0 1044.1,1512.0 1044.1,1544.0" fill="none" stroke="#c5aa9d" stroke-width="1.45" stroke-linecap="round" stroke-opacity="0.42"/>
<circle cx="1044.1" cy="1544.0" r="7.5" fill="#9fbc94" stroke="#9fbc94" stroke-width="2" opacity="0.48"/>
<path d="M485.9,1068.0 C465.9,1068.0 465.9,1058.0 446.0,1058.0" fill="none" stroke="#e5a650" stroke-width="0.9" stroke-opacity="0.42"/>
<path d="M446.0,1043.0 L446.0,1076.0" stroke="#e5a650" stroke-width="1.2" stroke-opacity="0.66" stroke-linecap="round"/>
<text x="438.0" y="1050.0" text-anchor="end" font-family="Berkeley Mono, BerkeleyMono, ui-monospace, SFMono-Regular, Menlo, monospace" font-size="8.5" font-weight="400" fill="#7f6256"><tspan x="438.0" dy="0.0">after rintro ⟨⟩</tspan></text>
<text x="438.0" y="1062.0" text-anchor="end" font-family="Berkeley Mono, BerkeleyMono, ui-monospace, SFMono-Regular, Menlo, monospace" font-size="8.5" font-weight="400" fill="#5b5e4f"><tspan x="438.0" dy="0.0">0 = 7 → 0 % 9 = 0 → 0 % 9 = 0</tspan></text>
<circle cx="765.0" cy="420.0" r="9.8" fill="#fff3ea" stroke="#321f1b" stroke-width="2.2"/>
<circle cx="605.5" cy="636.0" r="7.8" fill="#fff3ea" stroke="#321f1b" stroke-width="1.8"/>
<circle cx="924.5" cy="636.0" r="7.8" fill="#fff3ea" stroke="#321f1b" stroke-width="1.8"/>
<circle cx="525.8" cy="852.0" r="7.8" fill="#fff3ea" stroke="#321f1b" stroke-width="1.8"/>
<circle cx="685.2" cy="852.0" r="7.8" fill="#fff3ea" stroke="#321f1b" stroke-width="1.8"/>
<circle cx="844.8" cy="852.0" r="7.8" fill="#fff3ea" stroke="#321f1b" stroke-width="1.8"/>
<circle cx="1004.2" cy="852.0" r="7.8" fill="#fff3ea" stroke="#321f1b" stroke-width="1.8"/>
<circle cx="485.9" cy="1068.0" r="8.4" fill="#fff3ea" stroke="#28714b" stroke-width="2.4"/>
<circle cx="565.6" cy="1068.0" r="7.8" fill="#fff3ea" stroke="#321f1b" stroke-width="1.8"/>
<circle cx="804.9" cy="1068.0" r="8.4" fill="#fff3ea" stroke="#c5aa9d" stroke-width="1.5"/>
<circle cx="884.6" cy="1068.0" r="7.8" fill="#fff3ea" stroke="#321f1b" stroke-width="1.8"/>
<circle cx="645.4" cy="1068.0" r="8.4" fill="#fff3ea" stroke="#c5aa9d" stroke-width="1.5"/>
<circle cx="725.1" cy="1068.0" r="7.8" fill="#fff3ea" stroke="#321f1b" stroke-width="1.8"/>
<circle cx="964.4" cy="1068.0" r="8.4" fill="#fff3ea" stroke="#c5aa9d" stroke-width="1.5"/>
<circle cx="1044.1" cy="1068.0" r="7.8" fill="#fff3ea" stroke="#321f1b" stroke-width="1.8"/>
<circle cx="565.6" cy="1284.0" r="7.8" fill="#fff3ea" stroke="#321f1b" stroke-width="1.8"/>
<circle cx="884.6" cy="1284.0" r="7.8" fill="#fff3ea" stroke="#321f1b" stroke-width="1.8"/>
<circle cx="725.1" cy="1284.0" r="7.8" fill="#fff3ea" stroke="#321f1b" stroke-width="1.8"/>
<circle cx="1044.1" cy="1284.0" r="7.8" fill="#fff3ea" stroke="#321f1b" stroke-width="1.8"/>
<circle cx="565.6" cy="1500.0" r="8.4" fill="#fff3ea" stroke="#c5aa9d" stroke-width="1.5"/>
<circle cx="884.6" cy="1500.0" r="8.4" fill="#fff3ea" stroke="#c5aa9d" stroke-width="1.5"/>
<circle cx="725.1" cy="1500.0" r="8.4" fill="#fff3ea" stroke="#c5aa9d" stroke-width="1.5"/>
<circle cx="1044.1" cy="1500.0" r="8.4" fill="#fff3ea" stroke="#c5aa9d" stroke-width="1.5"/>
<text x="758.0" y="1654.0" text-anchor="middle" font-family="Berkeley Mono, BerkeleyMono, ui-monospace, SFMono-Regular, Menlo, monospace" font-size="11" font-weight="400" fill="#7f6256"><tspan x="758.0" dy="0.0">blocked exact attempts are shown only where the intervention trace records them</tspan></text>
</svg>