<?xml version="1.0" encoding="UTF-8" standalone="no"?>
<!DOCTYPE svg PUBLIC "-//W3C//DTD SVG 1.1//EN"
 "http://www.w3.org/Graphics/SVG/1.1/DTD/svg11.dtd">
<!-- Generated by graphviz version 12.2.1 (0)
 -->
<!-- Title: G Pages: 1 -->
<svg width="303pt" height="742pt"
 viewBox="0.00 0.00 303.37 741.63" xmlns="http://www.w3.org/2000/svg" xmlns:xlink="http://www.w3.org/1999/xlink">
<g id="graph0" class="graph" transform="scale(1 1) rotate(0) translate(4 737.63)">
<title>G</title>
<polygon fill="white" stroke="none" points="-4,4 -4,-737.63 299.37,-737.63 299.37,4 -4,4"/>
<!-- n0in1 -->
<!-- n0in2 -->
<!-- n0in1&#45;&gt;n0in2 -->
<!-- n0in3 -->
<!-- n0in2&#45;&gt;n0in3 -->
<!-- n0in4 -->
<!-- n0in3&#45;&gt;n0in4 -->
<!-- n0out1 -->
<!-- n0out2 -->
<!-- n0out1&#45;&gt;n0out2 -->
<!-- n1 -->
<!-- cell_1 -->
<g id="n1" class="node">
<title>n1</title>
<polygon fill="none" stroke="black" points="45.64,-689.94 45.64,-714.19 141.64,-714.19 141.64,-689.94 45.64,-689.94"/>
<text text-anchor="start" x="77.14" y="-695.89" font-family="Serif" font-size="14.00">cell_1</text>
</g>
<!-- n2 -->
<!-- cell_2 -->
<g id="n2" class="node">
<title>n2</title>
<polygon fill="none" stroke="black" points="57.64,-615.44 57.64,-639.69 153.64,-639.69 153.64,-615.44 57.64,-615.44"/>
<text text-anchor="start" x="89.14" y="-621.39" font-family="Serif" font-size="14.00">cell_2</text>
</g>
<!-- n1&#45;&gt;n2 -->
<!-- A_out -->
<g id="e3" class="edge">
<title>n1:s&#45;&gt;n2:n</title>
<path fill="none" stroke="black" d="M69.64,-689.94C69.64,-659.21 21.57,-696.33 2.89,-671.94 -0.96,-666.91 -0.96,-662.72 2.89,-657.69 20.11,-635.2 62.31,-664.99 68.8,-645.71"/>
<polygon fill="black" stroke="black" points="70.47,-646.38 69.43,-641.19 67,-645.9 70.47,-646.38"/>
<text text-anchor="middle" x="19.76" y="-658.64" font-family="Serif" font-size="14.00">A_out</text>
</g>
<!-- n1&#45;&gt;n2 -->
<!-- I_out -->
<g id="e4" class="edge">
<title>n1:s&#45;&gt;n2:n</title>
<path fill="none" stroke="black" d="M117.64,-689.94C117.64,-669.87 117.64,-663.33 117.64,-646.01"/>
<polygon fill="black" stroke="black" points="119.39,-646.2 117.64,-641.2 115.89,-646.2 119.39,-646.2"/>
<text text-anchor="middle" x="131.89" y="-658.64" font-family="Serif" font-size="14.00">I_out</text>
</g>
<!-- n2&#45;&gt;n1 -->
<!-- A_out -->
<g id="e1" class="edge">
<title>n2:s&#45;&gt;n1:n</title>
<path fill="none" stroke="black" d="M81.64,-614.44C81.64,-603.76 65.62,-608.35 57.64,-615.44 37.61,-633.24 36.35,-704.64 45.64,-714.19 49.82,-718.49 67.98,-721.41 76.8,-719.22"/>
<polygon fill="black" stroke="black" points="77.75,-720.7 80.48,-716.16 75.51,-718.01 77.75,-720.7"/>
<text text-anchor="middle" x="58.46" y="-658.64" font-family="Serif" font-size="14.00">A_out</text>
</g>
<!-- n2&#45;&gt;n1 -->
<!-- I_out -->
<g id="e2" class="edge">
<title>n2:s&#45;&gt;n1:n</title>
<path fill="none" stroke="black" d="M129.64,-614.44C129.64,-603.76 145.12,-609.01 153.64,-615.44 174.29,-631.02 174.68,-647.05 167.64,-671.94 155.56,-714.63 138.02,-725.88 131.87,-720.98"/>
<polygon fill="black" stroke="black" points="133.62,-720.64 130.18,-716.6 130.35,-721.9 133.62,-720.64"/>
<text text-anchor="middle" x="185.12" y="-658.64" font-family="Serif" font-size="14.00">I_out</text>
</g>
<!-- n3 -->
<!-- cell_3 -->
<g id="n3" class="node">
<title>n3</title>
<polygon fill="none" stroke="black" points="69.64,-540.94 69.64,-565.19 165.64,-565.19 165.64,-540.94 69.64,-540.94"/>
<text text-anchor="start" x="101.14" y="-546.89" font-family="Serif" font-size="14.00">cell_3</text>
</g>
<!-- n2&#45;&gt;n3 -->
<!-- A_out -->
<g id="e7" class="edge">
<title>n2:s&#45;&gt;n3:n</title>
<path fill="none" stroke="black" d="M81.64,-615.44C81.64,-584.71 33.57,-621.83 14.89,-597.44 11.04,-592.41 11.04,-588.22 14.89,-583.19 32.11,-560.7 74.31,-590.49 80.8,-571.21"/>
<polygon fill="black" stroke="black" points="82.47,-571.88 81.43,-566.69 79,-571.4 82.47,-571.88"/>
<text text-anchor="middle" x="31.76" y="-584.14" font-family="Serif" font-size="14.00">A_out</text>
</g>
<!-- n2&#45;&gt;n3 -->
<!-- I_out -->
<g id="e8" class="edge">
<title>n2:s&#45;&gt;n3:n</title>
<path fill="none" stroke="black" d="M129.64,-615.44C129.64,-595.37 129.64,-588.83 129.64,-571.51"/>
<polygon fill="black" stroke="black" points="131.39,-571.7 129.64,-566.7 127.89,-571.7 131.39,-571.7"/>
<text text-anchor="middle" x="143.89" y="-584.14" font-family="Serif" font-size="14.00">I_out</text>
</g>
<!-- n3&#45;&gt;n2 -->
<!-- A_out -->
<g id="e5" class="edge">
<title>n3:s&#45;&gt;n2:n</title>
<path fill="none" stroke="black" d="M93.64,-539.94C93.64,-529.26 77.62,-533.85 69.64,-540.94 49.61,-558.74 48.35,-630.14 57.64,-639.69 61.82,-643.99 79.98,-646.91 88.8,-644.72"/>
<polygon fill="black" stroke="black" points="89.75,-646.2 92.48,-641.66 87.51,-643.51 89.75,-646.2"/>
<text text-anchor="middle" x="70.46" y="-584.14" font-family="Serif" font-size="14.00">A_out</text>
</g>
<!-- n3&#45;&gt;n2 -->
<!-- I_out -->
<g id="e6" class="edge">
<title>n3:s&#45;&gt;n2:n</title>
<path fill="none" stroke="black" d="M141.64,-539.94C141.64,-529.26 157.12,-534.51 165.64,-540.94 186.29,-556.52 186.68,-572.55 179.64,-597.44 167.56,-640.13 150.02,-651.38 143.87,-646.48"/>
<polygon fill="black" stroke="black" points="145.62,-646.14 142.18,-642.1 142.35,-647.4 145.62,-646.14"/>
<text text-anchor="middle" x="197.12" y="-584.14" font-family="Serif" font-size="14.00">I_out</text>
</g>
<!-- n4 -->
<!-- cell_4 -->
<g id="n4" class="node">
<title>n4</title>
<polygon fill="none" stroke="black" points="81.64,-466.44 81.64,-490.69 177.64,-490.69 177.64,-466.44 81.64,-466.44"/>
<text text-anchor="start" x="113.14" y="-472.39" font-family="Serif" font-size="14.00">cell_4</text>
</g>
<!-- n3&#45;&gt;n4 -->
<!-- A_out -->
<g id="e11" class="edge">
<title>n3:s&#45;&gt;n4:n</title>
<path fill="none" stroke="black" d="M93.64,-540.94C93.64,-510.21 45.57,-547.33 26.89,-522.94 23.04,-517.91 23.04,-513.72 26.89,-508.69 44.11,-486.2 86.31,-515.99 92.8,-496.71"/>
<polygon fill="black" stroke="black" points="94.47,-497.38 93.43,-492.19 91,-496.9 94.47,-497.38"/>
<text text-anchor="middle" x="43.76" y="-509.64" font-family="Serif" font-size="14.00">A_out</text>
</g>
<!-- n3&#45;&gt;n4 -->
<!-- I_out -->
<g id="e12" class="edge">
<title>n3:s&#45;&gt;n4:n</title>
<path fill="none" stroke="black" d="M141.64,-540.94C141.64,-520.87 141.64,-514.33 141.64,-497.01"/>
<polygon fill="black" stroke="black" points="143.39,-497.2 141.64,-492.2 139.89,-497.2 143.39,-497.2"/>
<text text-anchor="middle" x="155.89" y="-509.64" font-family="Serif" font-size="14.00">I_out</text>
</g>
<!-- n4&#45;&gt;n3 -->
<!-- A_out -->
<g id="e9" class="edge">
<title>n4:s&#45;&gt;n3:n</title>
<path fill="none" stroke="black" d="M105.64,-465.44C105.64,-454.76 89.62,-459.35 81.64,-466.44 61.61,-484.24 60.35,-555.64 69.64,-565.19 73.82,-569.49 91.98,-572.41 100.8,-570.22"/>
<polygon fill="black" stroke="black" points="101.75,-571.7 104.48,-567.16 99.51,-569.01 101.75,-571.7"/>
<text text-anchor="middle" x="82.46" y="-509.64" font-family="Serif" font-size="14.00">A_out</text>
</g>
<!-- n4&#45;&gt;n3 -->
<!-- I_out -->
<g id="e10" class="edge">
<title>n4:s&#45;&gt;n3:n</title>
<path fill="none" stroke="black" d="M153.64,-465.44C153.64,-454.76 169.12,-460.01 177.64,-466.44 198.29,-482.02 198.68,-498.05 191.64,-522.94 179.56,-565.63 162.02,-576.88 155.87,-571.98"/>
<polygon fill="black" stroke="black" points="157.62,-571.64 154.18,-567.6 154.35,-572.9 157.62,-571.64"/>
<text text-anchor="middle" x="209.12" y="-509.64" font-family="Serif" font-size="14.00">I_out</text>
</g>
<!-- n5 -->
<!-- cell_5 -->
<g id="n5" class="node">
<title>n5</title>
<polygon fill="none" stroke="black" points="93.64,-391.94 93.64,-416.19 189.64,-416.19 189.64,-391.94 93.64,-391.94"/>
<text text-anchor="start" x="125.14" y="-397.89" font-family="Serif" font-size="14.00">cell_5</text>
</g>
<!-- n4&#45;&gt;n5 -->
<!-- A_out -->
<g id="e15" class="edge">
<title>n4:s&#45;&gt;n5:n</title>
<path fill="none" stroke="black" d="M105.64,-466.44C105.64,-435.71 57.57,-472.83 38.89,-448.44 35.04,-443.41 35.04,-439.22 38.89,-434.19 56.11,-411.7 98.31,-441.49 104.8,-422.21"/>
<polygon fill="black" stroke="black" points="106.47,-422.88 105.43,-417.69 103,-422.4 106.47,-422.88"/>
<text text-anchor="middle" x="55.76" y="-435.14" font-family="Serif" font-size="14.00">A_out</text>
</g>
<!-- n4&#45;&gt;n5 -->
<!-- I_out -->
<g id="e16" class="edge">
<title>n4:s&#45;&gt;n5:n</title>
<path fill="none" stroke="black" d="M153.64,-466.44C153.64,-446.37 153.64,-439.83 153.64,-422.51"/>
<polygon fill="black" stroke="black" points="155.39,-422.7 153.64,-417.7 151.89,-422.7 155.39,-422.7"/>
<text text-anchor="middle" x="167.89" y="-435.14" font-family="Serif" font-size="14.00">I_out</text>
</g>
<!-- n5&#45;&gt;n4 -->
<!-- A_out -->
<g id="e13" class="edge">
<title>n5:s&#45;&gt;n4:n</title>
<path fill="none" stroke="black" d="M117.64,-390.94C117.64,-380.26 101.62,-384.85 93.64,-391.94 73.61,-409.74 72.35,-481.14 81.64,-490.69 85.82,-494.99 103.98,-497.91 112.8,-495.72"/>
<polygon fill="black" stroke="black" points="113.75,-497.2 116.48,-492.66 111.51,-494.51 113.75,-497.2"/>
<text text-anchor="middle" x="94.46" y="-435.14" font-family="Serif" font-size="14.00">A_out</text>
</g>
<!-- n5&#45;&gt;n4 -->
<!-- I_out -->
<g id="e14" class="edge">
<title>n5:s&#45;&gt;n4:n</title>
<path fill="none" stroke="black" d="M165.64,-390.94C165.64,-380.26 181.12,-385.51 189.64,-391.94 210.29,-407.52 210.68,-423.55 203.64,-448.44 191.56,-491.13 174.02,-502.38 167.87,-497.48"/>
<polygon fill="black" stroke="black" points="169.62,-497.14 166.18,-493.1 166.35,-498.4 169.62,-497.14"/>
<text text-anchor="middle" x="221.12" y="-435.14" font-family="Serif" font-size="14.00">I_out</text>
</g>
<!-- n6 -->
<!-- cell_6 -->
<g id="n6" class="node">
<title>n6</title>
<polygon fill="none" stroke="black" points="105.64,-317.44 105.64,-341.69 201.64,-341.69 201.64,-317.44 105.64,-317.44"/>
<text text-anchor="start" x="137.14" y="-323.39" font-family="Serif" font-size="14.00">cell_6</text>
</g>
<!-- n5&#45;&gt;n6 -->
<!-- A_out -->
<g id="e19" class="edge">
<title>n5:s&#45;&gt;n6:n</title>
<path fill="none" stroke="black" d="M117.64,-391.94C117.64,-361.21 69.57,-398.33 50.89,-373.94 47.04,-368.91 47.04,-364.72 50.89,-359.69 68.11,-337.2 110.31,-366.99 116.8,-347.71"/>
<polygon fill="black" stroke="black" points="118.47,-348.38 117.43,-343.19 115,-347.9 118.47,-348.38"/>
<text text-anchor="middle" x="67.76" y="-360.64" font-family="Serif" font-size="14.00">A_out</text>
</g>
<!-- n5&#45;&gt;n6 -->
<!-- I_out -->
<g id="e20" class="edge">
<title>n5:s&#45;&gt;n6:n</title>
<path fill="none" stroke="black" d="M165.64,-391.94C165.64,-371.87 165.64,-365.33 165.64,-348.01"/>
<polygon fill="black" stroke="black" points="167.39,-348.2 165.64,-343.2 163.89,-348.2 167.39,-348.2"/>
<text text-anchor="middle" x="179.89" y="-360.64" font-family="Serif" font-size="14.00">I_out</text>
</g>
<!-- n6&#45;&gt;n5 -->
<!-- A_out -->
<g id="e17" class="edge">
<title>n6:s&#45;&gt;n5:n</title>
<path fill="none" stroke="black" d="M129.64,-316.44C129.64,-305.76 113.62,-310.35 105.64,-317.44 85.61,-335.24 84.35,-406.64 93.64,-416.19 97.82,-420.49 115.98,-423.41 124.8,-421.22"/>
<polygon fill="black" stroke="black" points="125.75,-422.7 128.48,-418.16 123.51,-420.01 125.75,-422.7"/>
<text text-anchor="middle" x="106.46" y="-360.64" font-family="Serif" font-size="14.00">A_out</text>
</g>
<!-- n6&#45;&gt;n5 -->
<!-- I_out -->
<g id="e18" class="edge">
<title>n6:s&#45;&gt;n5:n</title>
<path fill="none" stroke="black" d="M177.64,-316.44C177.64,-305.76 193.12,-311.01 201.64,-317.44 222.29,-333.02 222.68,-349.05 215.64,-373.94 203.56,-416.63 186.02,-427.88 179.87,-422.98"/>
<polygon fill="black" stroke="black" points="181.62,-422.64 178.18,-418.6 178.35,-423.9 181.62,-422.64"/>
<text text-anchor="middle" x="233.12" y="-360.64" font-family="Serif" font-size="14.00">I_out</text>
</g>
<!-- n7 -->
<!-- cell_7 -->
<g id="n7" class="node">
<title>n7</title>
<polygon fill="none" stroke="black" points="117.64,-242.94 117.64,-267.19 213.64,-267.19 213.64,-242.94 117.64,-242.94"/>
<text text-anchor="start" x="149.14" y="-248.89" font-family="Serif" font-size="14.00">cell_7</text>
</g>
<!-- n6&#45;&gt;n7 -->
<!-- A_out -->
<g id="e23" class="edge">
<title>n6:s&#45;&gt;n7:n</title>
<path fill="none" stroke="black" d="M129.64,-317.44C129.64,-286.71 81.57,-323.83 62.89,-299.44 59.04,-294.41 59.04,-290.22 62.89,-285.19 80.11,-262.7 122.31,-292.49 128.8,-273.21"/>
<polygon fill="black" stroke="black" points="130.47,-273.88 129.43,-268.69 127,-273.4 130.47,-273.88"/>
<text text-anchor="middle" x="79.76" y="-286.14" font-family="Serif" font-size="14.00">A_out</text>
</g>
<!-- n6&#45;&gt;n7 -->
<!-- I_out -->
<g id="e24" class="edge">
<title>n6:s&#45;&gt;n7:n</title>
<path fill="none" stroke="black" d="M177.64,-317.44C177.64,-297.37 177.64,-290.83 177.64,-273.51"/>
<polygon fill="black" stroke="black" points="179.39,-273.7 177.64,-268.7 175.89,-273.7 179.39,-273.7"/>
<text text-anchor="middle" x="191.89" y="-286.14" font-family="Serif" font-size="14.00">I_out</text>
</g>
<!-- n7&#45;&gt;n6 -->
<!-- A_out -->
<g id="e21" class="edge">
<title>n7:s&#45;&gt;n6:n</title>
<path fill="none" stroke="black" d="M141.64,-241.94C141.64,-231.26 125.62,-235.85 117.64,-242.94 97.61,-260.74 96.35,-332.14 105.64,-341.69 109.82,-345.99 127.98,-348.91 136.8,-346.72"/>
<polygon fill="black" stroke="black" points="137.75,-348.2 140.48,-343.66 135.51,-345.51 137.75,-348.2"/>
<text text-anchor="middle" x="118.46" y="-286.14" font-family="Serif" font-size="14.00">A_out</text>
</g>
<!-- n7&#45;&gt;n6 -->
<!-- I_out -->
<g id="e22" class="edge">
<title>n7:s&#45;&gt;n6:n</title>
<path fill="none" stroke="black" d="M189.64,-241.94C189.64,-231.26 205.12,-236.51 213.64,-242.94 234.29,-258.52 234.68,-274.55 227.64,-299.44 215.56,-342.13 198.02,-353.38 191.87,-348.48"/>
<polygon fill="black" stroke="black" points="193.62,-348.14 190.18,-344.1 190.35,-349.4 193.62,-348.14"/>
<text text-anchor="middle" x="245.12" y="-286.14" font-family="Serif" font-size="14.00">I_out</text>
</g>
<!-- n8 -->
<!-- cell_8 -->
<g id="n8" class="node">
<title>n8</title>
<polygon fill="none" stroke="black" points="129.64,-168.44 129.64,-192.69 225.64,-192.69 225.64,-168.44 129.64,-168.44"/>
<text text-anchor="start" x="161.14" y="-174.39" font-family="Serif" font-size="14.00">cell_8</text>
</g>
<!-- n7&#45;&gt;n8 -->
<!-- A_out -->
<g id="e27" class="edge">
<title>n7:s&#45;&gt;n8:n</title>
<path fill="none" stroke="black" d="M141.64,-242.94C141.64,-212.21 93.57,-249.33 74.89,-224.94 71.04,-219.91 71.04,-215.72 74.89,-210.69 92.11,-188.2 134.31,-217.99 140.8,-198.71"/>
<polygon fill="black" stroke="black" points="142.47,-199.38 141.43,-194.19 139,-198.9 142.47,-199.38"/>
<text text-anchor="middle" x="91.76" y="-211.64" font-family="Serif" font-size="14.00">A_out</text>
</g>
<!-- n7&#45;&gt;n8 -->
<!-- I_out -->
<g id="e28" class="edge">
<title>n7:s&#45;&gt;n8:n</title>
<path fill="none" stroke="black" d="M189.64,-242.94C189.64,-222.87 189.64,-216.33 189.64,-199.01"/>
<polygon fill="black" stroke="black" points="191.39,-199.2 189.64,-194.2 187.89,-199.2 191.39,-199.2"/>
<text text-anchor="middle" x="203.89" y="-211.64" font-family="Serif" font-size="14.00">I_out</text>
</g>
<!-- n8&#45;&gt;n7 -->
<!-- A_out -->
<g id="e25" class="edge">
<title>n8:s&#45;&gt;n7:n</title>
<path fill="none" stroke="black" d="M153.64,-167.44C153.64,-156.76 137.62,-161.35 129.64,-168.44 109.61,-186.24 108.35,-257.64 117.64,-267.19 121.82,-271.49 139.98,-274.41 148.8,-272.22"/>
<polygon fill="black" stroke="black" points="149.75,-273.7 152.48,-269.16 147.51,-271.01 149.75,-273.7"/>
<text text-anchor="middle" x="130.46" y="-211.64" font-family="Serif" font-size="14.00">A_out</text>
</g>
<!-- n8&#45;&gt;n7 -->
<!-- I_out -->
<g id="e26" class="edge">
<title>n8:s&#45;&gt;n7:n</title>
<path fill="none" stroke="black" d="M201.64,-167.44C201.64,-156.76 217.12,-162.01 225.64,-168.44 246.29,-184.02 246.68,-200.05 239.64,-224.94 227.56,-267.63 210.02,-278.88 203.87,-273.98"/>
<polygon fill="black" stroke="black" points="205.62,-273.64 202.18,-269.6 202.35,-274.9 205.62,-273.64"/>
<text text-anchor="middle" x="257.12" y="-211.64" font-family="Serif" font-size="14.00">I_out</text>
</g>
<!-- n9 -->
<!-- cell_9 -->
<g id="n9" class="node">
<title>n9</title>
<polygon fill="none" stroke="black" points="141.64,-93.94 141.64,-118.19 237.64,-118.19 237.64,-93.94 141.64,-93.94"/>
<text text-anchor="start" x="173.14" y="-99.89" font-family="Serif" font-size="14.00">cell_9</text>
</g>
<!-- n8&#45;&gt;n9 -->
<!-- A_out -->
<g id="e31" class="edge">
<title>n8:s&#45;&gt;n9:n</title>
<path fill="none" stroke="black" d="M153.64,-168.44C153.64,-137.71 105.57,-174.83 86.89,-150.44 83.04,-145.41 83.04,-141.22 86.89,-136.19 104.11,-113.7 146.31,-143.49 152.8,-124.21"/>
<polygon fill="black" stroke="black" points="154.47,-124.88 153.43,-119.69 151,-124.4 154.47,-124.88"/>
<text text-anchor="middle" x="103.76" y="-137.14" font-family="Serif" font-size="14.00">A_out</text>
</g>
<!-- n8&#45;&gt;n9 -->
<!-- I_out -->
<g id="e32" class="edge">
<title>n8:s&#45;&gt;n9:n</title>
<path fill="none" stroke="black" d="M201.64,-168.44C201.64,-148.37 201.64,-141.83 201.64,-124.51"/>
<polygon fill="black" stroke="black" points="203.39,-124.7 201.64,-119.7 199.89,-124.7 203.39,-124.7"/>
<text text-anchor="middle" x="215.89" y="-137.14" font-family="Serif" font-size="14.00">I_out</text>
</g>
<!-- n9&#45;&gt;n8 -->
<!-- A_out -->
<g id="e29" class="edge">
<title>n9:s&#45;&gt;n8:n</title>
<path fill="none" stroke="black" d="M165.64,-92.94C165.64,-82.26 149.62,-86.85 141.64,-93.94 121.61,-111.74 120.35,-183.14 129.64,-192.69 133.82,-196.99 151.98,-199.91 160.8,-197.72"/>
<polygon fill="black" stroke="black" points="161.75,-199.2 164.48,-194.66 159.51,-196.51 161.75,-199.2"/>
<text text-anchor="middle" x="142.46" y="-137.14" font-family="Serif" font-size="14.00">A_out</text>
</g>
<!-- n9&#45;&gt;n8 -->
<!-- I_out -->
<g id="e30" class="edge">
<title>n9:s&#45;&gt;n8:n</title>
<path fill="none" stroke="black" d="M213.64,-92.94C213.64,-82.26 229.12,-87.51 237.64,-93.94 258.29,-109.52 258.68,-125.55 251.64,-150.44 239.56,-193.13 222.02,-204.38 215.87,-199.48"/>
<polygon fill="black" stroke="black" points="217.62,-199.14 214.18,-195.1 214.35,-200.4 217.62,-199.14"/>
<text text-anchor="middle" x="269.12" y="-137.14" font-family="Serif" font-size="14.00">I_out</text>
</g>
<!-- n10 -->
<!-- cell_10 -->
<g id="n10" class="node">
<title>n10</title>
<polygon fill="none" stroke="black" points="153.64,-19.44 153.64,-43.69 249.64,-43.69 249.64,-19.44 153.64,-19.44"/>
<text text-anchor="start" x="181.76" y="-25.39" font-family="Serif" font-size="14.00">cell_10</text>
</g>
<!-- n9&#45;&gt;n10 -->
<!-- A_out -->
<g id="e35" class="edge">
<title>n9:s&#45;&gt;n10:n</title>
<path fill="none" stroke="black" d="M165.64,-93.94C165.64,-63.21 117.57,-100.33 98.89,-75.94 95.04,-70.91 95.04,-66.72 98.89,-61.69 116.11,-39.2 158.31,-68.99 164.8,-49.71"/>
<polygon fill="black" stroke="black" points="166.47,-50.38 165.43,-45.19 163,-49.9 166.47,-50.38"/>
<text text-anchor="middle" x="115.76" y="-62.64" font-family="Serif" font-size="14.00">A_out</text>
</g>
<!-- n9&#45;&gt;n10 -->
<!-- I_out -->
<g id="e36" class="edge">
<title>n9:s&#45;&gt;n10:n</title>
<path fill="none" stroke="black" d="M213.64,-93.94C213.64,-73.87 213.64,-67.33 213.64,-50.01"/>
<polygon fill="black" stroke="black" points="215.39,-50.2 213.64,-45.2 211.89,-50.2 215.39,-50.2"/>
<text text-anchor="middle" x="227.89" y="-62.64" font-family="Serif" font-size="14.00">I_out</text>
</g>
<!-- n10&#45;&gt;n9 -->
<!-- A_out -->
<g id="e33" class="edge">
<title>n10:s&#45;&gt;n9:n</title>
<path fill="none" stroke="black" d="M177.64,-18.44C177.64,-7.76 161.62,-12.35 153.64,-19.44 133.61,-37.24 132.35,-108.64 141.64,-118.19 145.82,-122.49 163.98,-125.41 172.8,-123.22"/>
<polygon fill="black" stroke="black" points="173.75,-124.7 176.48,-120.16 171.51,-122.01 173.75,-124.7"/>
<text text-anchor="middle" x="154.46" y="-62.64" font-family="Serif" font-size="14.00">A_out</text>
</g>
<!-- n10&#45;&gt;n9 -->
<!-- I_out -->
<g id="e34" class="edge">
<title>n10:s&#45;&gt;n9:n</title>
<path fill="none" stroke="black" d="M225.64,-18.44C225.64,-7.76 241.12,-13.01 249.64,-19.44 270.29,-35.02 270.68,-51.05 263.64,-75.94 251.56,-118.63 234.02,-129.88 227.87,-124.98"/>
<polygon fill="black" stroke="black" points="229.62,-124.64 226.18,-120.6 226.35,-125.9 229.62,-124.64"/>
<text text-anchor="middle" x="281.12" y="-62.64" font-family="Serif" font-size="14.00">I_out</text>
</g>
</g>
</svg>
